:SAMPLES-PER-SECOND 24
:FULLY-SPECIFIED
:DEGREES
552
root  -2.51576 40.6468 14.2057 5.40332 59.4792 -0.66333
RightUpLeg  -20.8288 -5.4041 -5.13947
RightLeg  29.8092 -10.6217 -6.75305
RightFoot  -2.88473 -0.0970249 0.986266
RightToes  -2.08645e-008 3.77894e-005 6.81332e-007
Spine  1.01498 -5.44557 -10.0211
Spine1  1.80906 -7.73957 11.9218
HEad  -34.7335 -16.0841 12.0197
LeftShoulder1  7.8418 -13.5906 -39.6877
LeftArm  -0.191455 14.04 -33.7571
LeftForeArm  158.966 -69.58 -152.511
LeftHand  -0.489661 -0.416041 9.90736
RightShoulder  4.10466 6.75181 34.134
RightArm  5.46149 -37.5828 33.9736
RightForeArm  144.71 77.6344 130.746
RightHand  0.025966 9.2297 -0.190061
LeftUpLeg  1.63272 -0.618112 7.33205
LeftLeg  18.0289 4.48028 2.04984
LeftFoot  -2.17454 1.50417 -18.4743
LeftToes  1.24767e-006 1.47042e-008 1.32732e-009
553
root  -2.22931 40.7392 15.2115 5.40027 58.539 -1.92419
RightUpLeg  -20.0764 -5.10773 -3.6417
RightLeg  24.3878 -9.8458 -5.07469
RightFoot  -0.211076 -0.360205 3.67669
RightToes  -2.08645e-008 3.77894e-005 6.81332e-007
Spine  -0.449166 -5.93214 -9.04472
Spine1  0.835118 -8.00873 12.1183
HEad  -32.8407 -15.093 11.251
LeftShoulder1  7.35457 -13.1925 -37.9406
LeftArm  4.11021 12.2528 -33.5617
LeftForeArm  161.991 -68.8144 -153.924
LeftHand  -0.413339 -1.46514 7.17275
RightShoulder  4.0899 6.82667 33.7041
RightArm  8.41308 -38.1669 32.1054
RightForeArm  142.112 77.8279 129.251
RightHand  0.252509 9.33573 1.58581
LeftUpLeg  1.18503 0.379803 9.07003
LeftLeg  18.5238 5.03767 2.26946
LeftFoot  0.160343 1.93891 -19.1054
LeftToes  1.24767e-006 1.47042e-008 1.32732e-009
554
root  -2.10598 40.3163 16.1273 4.60144 57.9214 -2.45068
RightUpLeg  -19.4045 -5.68489 -2.54678
RightLeg  24.858 -6.17479 -3.32267
RightFoot  -1.00613 -0.331377 3.67956
RightToes  -2.08645e-008 3.77894e-005 6.81332e-007
Spine  0.265973 -5.80837 -8.75202
Spine1  0.293862 -7.98333 12.9883
HEad  -33.0613 -14.5571 11.0653
LeftShoulder1  6.72873 -12.6596 -35.5922
LeftArm  8.47482 7.59296 -33.5468
LeftForeArm  163.238 -69.2173 -153.56
LeftHand  -0.323104 -2.15203 5.17007
RightShoulder  3.9451 6.75034 32.5866
RightArm  11.1612 -36.8351 30.9332
RightForeArm  140.14 77.9886 128.023
RightHand  0.163377 9.01572 0.914817
LeftUpLeg  1.44945 0.0215883 10.2956
LeftLeg  21.2403 5.84681 2.83415
LeftFoot  -1.20376 1.81121 -20.1488
LeftToes  1.24767e-006 1.47042e-008 1.32732e-009
555
root  -2.07522 39.5744 16.9491 2.66223 57.3582 -3.29224
RightUpLeg  -18.4294 -7.21733 -0.84801
RightLeg  27.8291 -4.5321 -2.82076
RightFoot  -6.7081 -0.0486078 0.0767845
RightToes  -2.08645e-008 3.77894e-005 6.81332e-007
Spine  2.00841 -5.23692 -8.06334
Spine1  0.660577 -7.63474 13.3284
HEad  -34.7731 -14.5191 11.3689
LeftShoulder1  6.51909 -12.4716 -34.79
LeftArm  11.505 0.204428 -32.2405
LeftForeArm  162.561 -70.4198 -151.789
LeftHand  -0.329637 -2.54935 5.03602
RightShoulder  3.75731 6.52798 31.5635
RightArm  12.353 -32.7921 30.5954
RightForeArm  133.719 78.9301 121.174
RightHand  -0.0938648 8.95665 -1.15006
LeftUpLeg  1.44924 0.000471224 11.8874
LeftLeg  26.5547 5.74897 3.45664
LeftFoot  -4.59911 1.31661 -21.6573
LeftToes  1.24767e-006 1.47042e-008 1.32732e-009
556
root  -2.03236 38.8647 17.696 0.371094 56.4821 -5.22437
RightUpLeg  -18.2838 -6.83209 1.5729
RightLeg  30.931 -5.72537 -3.93451
RightFoot  -12.0285 -0.0907337 -2.59886
RightToes  -2.08645e-008 3.77894e-005 6.81332e-007
Spine  2.27122 -4.74176 -6.41811
Spine1  2.62489 -7.33232 12.6131
HEad  -36.8199 -14.3431 11.7699
LeftShoulder1  6.87589 -12.8002 -36.1253
LeftArm  12.5208 -6.68386 -29.8399
LeftForeArm  160.542 -72.6799 -147.688
LeftHand  -0.386777 -3.21564 5.46792
RightShoulder  3.76795 6.44178 31.9982
RightArm  11.2329 -25.7195 30.2614
RightForeArm  109.005 80.4977 94.799
RightHand  -0.149727 9.21816 -1.58219
LeftUpLeg  -0.925623 0.660829 14.3919
LeftLeg  34.6963 4.83813 3.9561
LeftFoot  -5.903 1.19438 -23.9215
LeftToes  1.24767e-006 1.47042e-008 1.32732e-009
